<svg xmlns="http://www.w3.org/2000/svg" viewBox="0 0 170.98 152.9"><defs><style>.cls-1{fill:#fff;}</style></defs><title>sunrise-over-mountains</title><g id="Layer_2" data-name="Layer 2"><path class="cls-1" d="M74.39,75.24a11.6,11.6,0,0,1,19,0l15.44,22.25,6.51-9.39a11.6,11.6,0,0,1,19,0l23.37,33.7a65,65,0,1,0-115.66-.08Z" transform="translate(-14.51 -27.1)"/><path class="cls-1" d="M184.66,172.79l-56-80.7a4.6,4.6,0,0,0-7.55,0l-12.27,17.69L87.69,79.23a4.6,4.6,0,0,0-7.55,0l-64.8,93.43a4.59,4.59,0,0,0,3.77,7.21H67.88a4.59,4.59,0,0,0,1.06.13h112A4.59,4.59,0,0,0,184.66,172.79Z" transform="translate(-14.51 -27.1)"/></g></svg>